<svg width="25" height="25" viewBox="0 0 25 25" fill="none" xmlns="http://www.w3.org/2000/svg">
<g clip-path="url(#clip0_3327_716)">
<path d="M18.1078 5.89896L14.3523 2.59303L14.3511 2.59205C13.9427 2.23462 13.4647 1.98671 12.9596 1.85829L12.3364 1.69985L12.3364 2.34288L12.3364 30.5303L11.8819 30.5303L11.8819 2.34288L11.8819 1.69985L11.2587 1.85829C10.7536 1.98671 10.2757 2.23462 9.86717 2.59204L9.86573 2.59332L6.11749 5.89864L5.81812 5.55844L9.56592 2.2535C9.56614 2.25331 9.56636 2.25312 9.56658 2.25292C11.0214 0.978943 13.2041 0.978921 14.6589 2.25286C14.6592 2.25307 14.6594 2.25329 14.6597 2.2535L18.4075 5.55844L18.1078 5.89896Z" fill="#212121" stroke="#8F8D89"/>
</g>
<defs>
<clipPath id="clip0_3327_716">
<rect width="24" height="24" fill="white" transform="translate(0.112793 24.0303) rotate(-90)"/>
</clipPath>
</defs>
</svg>
